<?xml version="1.0" encoding="UTF-8" ?>
<!DOCTYPE svg PUBLIC "-//W3C//DTD SVG 1.1//EN" "http://www.w3.org/Graphics/SVG/1.1/DTD/svg11.dtd">
<svg width="2539pt" height="576pt" viewBox="0 0 2539 576" version="1.1" xmlns="http://www.w3.org/2000/svg">
<g id="#d6492bff">
<path fill="#d6492b" opacity="1.00" d=" M 0.00 0.00 L 0.07 0.00 C 0.05 0.02 0.02 0.05 0.00 0.07 L 0.00 0.00 Z" />
<path fill="#d6492b" opacity="1.00" d=" M 2091.30 119.59 C 2175.45 175.15 2259.58 230.75 2343.72 286.33 C 2260.06 341.85 2176.18 397.04 2092.44 452.44 C 2091.19 448.05 2091.78 443.48 2091.84 438.99 C 2092.03 420.33 2092.03 401.67 2091.87 383.01 C 2091.88 377.59 2090.99 372.04 2092.76 366.79 C 2087.90 366.84 2083.06 366.81 2078.22 366.85 C 2078.24 342.91 2078.36 318.96 2078.15 295.01 C 2077.81 285.35 2077.95 275.57 2075.92 266.08 C 2073.38 255.88 2066.45 246.69 2056.97 242.01 C 2046.82 236.74 2035.20 235.87 2024.00 235.10 C 1999.77 233.78 1975.49 234.41 1951.24 234.26 C 1951.22 235.63 1951.23 237.00 1951.27 238.38 C 1949.34 238.38 1947.44 238.39 1945.57 238.43 C 1945.60 281.20 1945.44 323.97 1945.65 366.75 C 1940.26 366.45 1934.84 366.45 1929.47 366.95 C 1929.51 322.72 1929.51 278.48 1929.48 234.24 C 1905.71 234.25 1881.95 234.29 1858.18 234.22 C 1858.07 234.63 1857.84 235.46 1857.72 235.88 C 1857.55 236.40 1857.20 237.45 1857.03 237.97 C 1855.36 237.95 1853.71 237.93 1852.09 237.92 C 1851.65 246.70 1849.64 255.30 1848.98 264.06 C 1847.20 280.83 1844.51 297.50 1842.83 314.29 C 1838.77 287.66 1835.49 260.92 1831.27 234.32 C 1807.59 234.16 1783.92 234.30 1760.25 234.25 C 1760.23 235.62 1760.24 237.00 1760.27 238.38 C 1758.34 238.38 1756.44 238.39 1754.56 238.43 C 1754.60 281.20 1754.45 323.97 1754.64 366.73 C 1749.96 366.61 1745.28 366.53 1740.62 366.34 C 1740.55 364.30 1740.60 362.28 1740.71 360.26 C 1722.39 360.23 1704.07 360.26 1685.76 360.24 C 1685.74 361.39 1685.76 362.54 1685.79 363.70 C 1682.78 363.58 1679.87 364.17 1678.16 366.89 C 1674.06 366.77 1669.98 366.62 1665.92 366.34 C 1665.92 340.57 1665.92 314.79 1665.91 289.01 C 1665.94 282.69 1666.12 276.31 1667.55 270.12 C 1671.21 270.34 1676.49 269.54 1678.21 273.79 C 1680.18 279.62 1679.67 285.90 1679.82 291.96 C 1679.85 305.00 1679.74 318.03 1679.88 331.06 C 1698.60 331.10 1717.32 331.09 1736.04 331.06 C 1736.04 329.37 1736.06 327.68 1736.11 325.99 C 1737.61 325.98 1739.14 325.97 1740.69 325.97 C 1740.55 310.40 1741.13 294.77 1739.28 279.27 C 1738.18 270.65 1736.59 261.73 1731.73 254.35 C 1722.52 240.67 1706.49 232.93 1690.48 230.70 C 1673.39 228.39 1655.14 229.37 1639.60 237.48 C 1635.10 239.67 1631.20 242.82 1627.31 245.91 C 1619.64 250.29 1614.44 257.92 1610.70 265.73 C 1605.56 276.36 1605.78 288.42 1604.93 299.93 C 1604.89 322.23 1604.96 344.53 1604.89 366.83 C 1567.62 366.90 1530.33 366.67 1493.06 366.94 C 1495.98 354.56 1498.89 342.17 1501.36 329.69 C 1502.86 321.18 1505.33 312.22 1502.46 303.72 C 1500.46 297.93 1497.84 291.95 1492.92 288.04 C 1488.37 284.40 1482.99 281.98 1477.52 280.08 C 1487.00 277.77 1496.82 274.35 1503.52 266.88 C 1509.50 262.27 1514.03 256.08 1517.28 249.31 C 1523.93 235.58 1527.82 220.72 1531.09 205.88 C 1637.40 205.83 1743.72 205.91 1850.03 205.83 C 1929.99 205.89 2009.95 205.69 2089.91 205.93 C 2090.37 205.94 2091.29 205.98 2091.76 205.99 C 2092.16 180.34 2091.97 154.68 2091.84 129.03 C 2091.80 126.05 2091.60 123.08 2091.34 120.12 L 2091.30 119.59 Z" />
<path fill="#d6492b" opacity="1.00" d=" M 165.48 205.87 C 195.31 205.87 225.14 205.84 254.97 205.88 C 242.31 259.52 229.55 313.13 216.96 366.79 C 199.83 366.82 182.70 366.90 165.57 366.75 C 165.56 313.31 165.72 259.86 165.49 206.42 L 165.48 205.87 Z" />
<path fill="#d6492b" opacity="1.00" d=" M 304.00 366.93 C 316.70 313.23 329.42 259.54 342.12 205.84 C 363.10 205.90 384.08 205.82 405.06 205.88 C 393.01 258.36 380.22 310.67 368.05 363.12 C 367.56 364.74 367.32 367.38 364.95 366.81 C 344.63 366.94 324.31 366.66 304.00 366.93 Z" />
<path fill="#d6492b" opacity="1.00" d=" M 492.13 205.88 L 492.23 205.88 C 498.91 205.86 505.59 205.83 512.28 205.90 C 508.77 220.03 506.61 234.71 500.01 247.83 L 499.95 247.97 C 494.05 249.99 487.81 250.68 481.59 250.60 C 485.10 235.69 488.71 220.81 492.13 205.88 Z" />
<path fill="#d6492b" opacity="1.00" d=" M 593.47 205.87 C 602.47 205.89 611.47 205.79 620.47 205.93 C 607.87 259.53 595.17 313.12 582.48 366.70 C 573.48 367.02 564.47 366.66 555.46 366.89 C 559.30 350.31 563.52 333.77 565.98 316.91 C 567.34 308.50 564.31 300.09 559.88 293.06 C 555.56 286.59 548.14 283.26 541.18 280.44 C 549.77 276.89 559.40 274.41 565.69 267.06 C 570.85 263.03 575.18 258.00 578.20 252.19 C 585.91 237.76 589.95 221.74 593.47 205.87 Z" />
<path fill="#d6492b" opacity="1.00" d=" M 707.52 205.86 C 716.51 205.90 725.49 205.79 734.48 205.92 C 728.88 225.11 724.31 244.58 719.72 264.03 C 711.90 298.32 703.09 332.40 695.88 366.82 C 687.04 366.89 678.21 366.71 669.39 366.89 C 682.14 313.22 694.80 259.53 707.52 205.86 Z" />
<path fill="#d6492b" opacity="1.00" d=" M 820.52 205.86 C 827.71 205.87 834.90 205.84 842.09 205.88 C 839.12 219.75 835.68 233.51 832.51 247.33 C 860.16 247.51 887.81 247.27 915.45 247.45 C 915.59 245.76 916.09 244.14 916.93 242.65 C 918.12 242.66 919.33 242.66 920.56 242.66 C 923.39 230.44 926.56 218.28 928.55 205.88 C 937.33 205.85 946.12 205.85 954.90 205.88 C 951.80 216.34 948.95 226.87 946.42 237.49 C 939.16 267.66 932.13 297.87 924.95 328.06 C 922.28 339.77 919.22 351.40 917.10 363.22 C 916.59 364.44 916.76 366.89 914.86 366.74 C 906.95 367.10 899.03 366.55 891.12 366.94 C 898.59 335.50 906.02 304.04 913.46 272.59 C 881.37 272.59 849.28 272.55 817.19 272.61 C 816.88 273.88 816.62 275.16 816.34 276.44 C 814.74 276.95 811.60 275.70 811.20 278.01 C 807.56 293.79 803.51 309.50 800.24 325.37 C 805.49 325.42 810.76 325.38 816.02 325.35 C 815.66 328.24 815.32 331.13 814.62 333.96 C 811.87 344.88 809.50 355.89 806.70 366.80 C 798.61 366.92 790.52 366.69 782.44 366.90 C 795.07 313.21 807.83 259.54 820.52 205.86 Z" />
<path fill="#d6492b" opacity="1.00" d=" M 1040.86 205.87 C 1048.02 205.87 1055.19 205.82 1062.36 205.90 C 1059.64 219.80 1055.70 233.42 1052.99 247.32 C 1080.72 247.42 1108.46 247.47 1136.20 247.30 C 1136.35 245.74 1136.52 244.19 1136.71 242.65 C 1138.06 242.66 1139.43 242.68 1140.82 242.70 C 1143.79 230.49 1146.86 218.28 1148.89 205.87 C 1158.22 205.86 1167.55 205.85 1176.89 205.88 C 1166.23 250.66 1155.66 295.46 1145.08 340.26 C 1142.61 348.96 1141.36 357.97 1138.64 366.59 C 1129.60 367.25 1120.51 366.53 1111.46 366.89 C 1118.93 335.46 1126.36 304.02 1133.79 272.58 C 1102.16 272.61 1070.54 272.53 1038.92 272.62 C 1037.06 272.24 1037.32 274.81 1036.72 275.89 C 1035.05 276.16 1033.41 276.43 1031.77 276.71 C 1028.11 292.95 1024.16 309.11 1020.41 325.33 C 1025.88 325.40 1031.36 325.39 1036.84 325.41 C 1033.81 339.19 1030.27 352.86 1027.24 366.64 C 1019.03 367.23 1010.78 366.27 1002.61 367.24 C 1015.45 313.47 1028.08 259.65 1040.86 205.87 Z" />
<path fill="#d6492b" opacity="1.00" d=" M 1263.85 205.87 C 1290.19 205.86 1316.54 205.85 1342.88 205.88 C 1330.10 259.51 1317.61 313.21 1304.68 366.80 C 1278.37 366.86 1252.05 366.81 1225.74 366.82 C 1229.90 349.34 1234.05 331.85 1238.15 314.36 C 1253.92 314.46 1269.69 314.30 1285.46 314.44 C 1285.58 312.75 1286.04 311.13 1286.90 309.65 C 1288.12 309.66 1289.36 309.66 1290.62 309.67 C 1295.35 289.64 1300.11 269.62 1304.82 249.58 C 1287.73 249.60 1270.64 249.56 1253.55 249.60 C 1256.88 235.00 1260.43 220.45 1263.85 205.87 Z" />
<path fill="#d6492b" opacity="1.00" d=" M 1429.86 205.86 C 1436.56 205.86 1443.27 205.85 1449.98 205.87 C 1446.24 220.07 1444.53 235.08 1437.32 248.11 C 1431.48 249.99 1425.37 250.66 1419.27 250.64 C 1422.77 235.71 1426.32 220.79 1429.86 205.86 Z" />
<path fill="#d6492b" opacity="1.00" d=" M 2006.11 275.76 C 2008.37 276.08 2010.79 276.01 2012.95 276.93 C 2017.31 279.76 2017.07 285.66 2017.51 290.26 C 2017.86 315.76 2017.50 341.27 2017.71 366.78 C 2013.88 366.56 2010.05 366.53 2006.24 366.67 C 2005.89 336.37 2006.14 306.06 2006.11 275.76 Z" />
<path fill="#d6492b" opacity="1.00" d=" M 1391.74 366.82 C 1396.80 345.51 1401.89 324.20 1406.85 302.87 C 1406.97 303.39 1407.22 304.43 1407.35 304.94 C 1411.51 305.53 1416.20 305.41 1419.57 308.35 C 1422.42 310.63 1422.48 314.68 1422.21 318.02 C 1420.84 330.12 1417.95 341.96 1414.94 353.74 C 1413.66 357.98 1413.44 362.53 1411.69 366.62 C 1405.05 367.17 1398.38 366.66 1391.74 366.82 Z" />
<path fill="#d6492b" opacity="1.00" d=" M 454.06 366.93 C 458.95 346.24 463.88 325.56 468.73 304.86 C 473.87 305.42 480.74 305.43 483.54 310.61 C 484.99 320.97 482.74 331.40 480.29 341.45 C 478.06 349.81 476.37 358.31 474.32 366.72 C 467.56 366.99 460.81 366.64 454.06 366.93 Z" />
<path fill="#d6492b" opacity="1.00" d=" M 1875.37 345.10 C 1875.50 344.84 1875.74 344.33 1875.86 344.07 C 1875.46 351.58 1875.66 359.11 1875.68 366.63 C 1874.94 366.75 1873.47 367.00 1872.73 367.13 C 1873.74 359.80 1875.07 352.50 1875.37 345.10 Z" />
</g>
<g id="#006885ff">
<path fill="#006885" opacity="1.00" d=" M 0.07 0.00 L 2539.00 0.00 L 2539.00 576.00 L 0.00 576.00 L 0.00 0.07 C 0.02 0.05 0.05 0.02 0.07 0.00 M 812.17 125.32 C 795.89 130.35 781.21 139.68 768.55 150.95 C 768.03 151.04 766.98 151.22 766.46 151.32 C 757.15 159.17 748.96 168.76 743.91 179.96 C 740.23 188.40 737.10 197.09 734.48 205.92 C 725.49 205.79 716.51 205.90 707.52 205.86 C 713.79 179.32 720.10 152.79 726.35 126.25 C 698.91 126.25 671.48 126.25 644.04 126.24 C 643.74 127.48 643.46 128.72 643.19 129.96 C 641.46 129.97 639.74 129.92 638.03 129.80 C 635.43 145.44 630.51 160.59 627.33 176.12 C 625.50 186.17 622.19 195.85 620.47 205.93 C 611.47 205.79 602.47 205.89 593.47 205.87 C 596.12 192.92 597.97 179.58 596.40 166.37 C 595.08 155.00 589.07 144.10 579.74 137.38 C 573.37 132.71 565.58 130.56 557.85 129.51 C 541.66 127.26 525.28 126.84 508.95 126.48 C 482.18 126.14 455.41 126.22 428.64 126.30 C 428.38 127.44 428.13 128.57 427.89 129.71 C 426.11 129.90 424.35 130.13 422.58 130.30 C 421.28 136.91 419.56 143.43 418.10 150.01 C 417.07 157.56 414.10 164.66 413.12 172.21 C 409.86 183.30 407.70 194.65 405.06 205.88 C 384.08 205.82 363.10 205.90 342.12 205.84 C 343.04 202.01 343.94 198.17 344.82 194.33 C 359.88 194.43 374.96 194.48 390.03 194.30 C 390.41 192.73 390.85 191.18 391.35 189.65 C 392.48 189.66 393.60 189.67 394.74 189.68 C 399.81 168.58 404.67 147.43 409.81 126.34 C 349.89 126.12 289.97 126.33 230.05 126.23 C 229.76 127.46 229.48 128.69 229.20 129.92 C 227.48 129.92 225.76 129.90 224.04 129.85 C 222.41 138.98 220.27 148.06 217.83 157.04 C 217.48 161.87 215.03 166.20 214.60 171.01 C 212.69 178.75 211.04 186.55 209.41 194.35 C 225.52 194.48 241.63 194.33 257.74 194.43 C 256.85 198.25 255.83 202.05 254.97 205.88 C 225.14 205.84 195.31 205.87 165.48 205.87 L 165.49 206.42 C 163.13 206.80 164.21 209.41 163.90 210.97 C 164.03 263.33 163.90 315.69 163.97 368.05 C 181.33 368.07 198.69 367.99 216.06 368.08 C 215.54 371.32 215.44 374.67 214.24 377.77 C 212.66 382.03 212.53 386.64 211.04 390.92 C 209.25 396.17 208.83 401.75 207.11 407.02 C 204.79 420.59 199.61 433.62 198.31 447.37 C 226.21 447.30 254.13 447.67 282.03 447.18 C 282.09 445.67 282.16 444.16 282.22 442.65 C 283.46 442.67 284.71 442.69 285.97 442.71 C 292.05 417.86 297.80 392.92 303.72 368.02 C 324.68 368.06 345.64 368.05 366.60 368.03 C 364.10 379.74 361.14 391.31 358.47 402.98 C 356.20 409.91 355.40 417.18 353.22 424.13 C 351.76 431.91 349.60 439.55 348.29 447.36 C 376.21 447.34 404.14 447.61 432.05 447.23 C 432.11 445.70 432.16 444.19 432.21 442.68 C 433.50 442.35 436.09 443.48 436.38 441.53 C 442.23 417.04 448.01 392.53 453.79 368.02 C 460.52 368.10 467.26 367.93 474.00 368.15 C 469.79 382.16 467.35 396.63 463.75 410.81 C 460.41 422.85 458.00 435.13 455.37 447.34 C 480.99 447.49 506.62 447.36 532.24 447.41 C 532.84 445.78 533.53 444.20 534.31 442.65 C 535.38 442.65 536.46 442.66 537.55 442.66 C 543.41 417.75 549.38 392.87 555.19 367.95 C 564.11 368.23 573.04 367.85 581.97 368.16 C 581.23 373.59 579.10 378.68 578.04 384.04 C 576.90 392.45 573.55 400.36 572.40 408.77 C 571.50 415.35 568.69 421.47 567.73 428.03 C 566.68 434.55 564.65 440.85 563.46 447.34 C 591.34 447.38 619.23 447.56 647.11 447.25 C 647.19 445.71 647.28 444.17 647.37 442.64 C 648.73 442.64 650.11 442.65 651.49 442.66 C 657.32 417.74 663.32 392.87 669.11 367.95 C 677.77 368.18 686.43 367.96 695.09 368.06 C 694.69 370.72 694.56 373.41 693.98 376.04 C 692.17 384.56 692.54 393.34 692.68 401.99 C 692.65 407.16 695.15 411.83 696.27 416.79 C 699.89 427.84 707.93 437.18 717.68 443.37 C 726.26 449.57 736.74 452.07 746.95 454.07 C 751.96 454.37 757.00 454.22 762.03 454.20 C 774.29 452.65 786.42 448.84 796.64 441.72 C 797.71 440.97 798.41 439.95 798.73 438.67 C 804.03 435.18 809.05 431.23 813.40 426.59 C 814.59 433.40 814.85 440.32 814.97 447.22 C 832.99 447.53 851.03 447.50 869.05 447.24 C 869.14 445.70 869.23 444.16 869.32 442.63 C 870.63 442.61 871.95 442.60 873.28 442.61 C 879.02 417.72 885.06 392.91 890.84 368.04 C 899.13 368.05 907.42 368.05 915.72 368.02 C 915.07 371.63 914.41 375.24 913.77 378.85 C 912.31 385.78 912.79 392.90 912.75 399.94 C 914.33 412.45 918.13 425.52 927.51 434.51 C 935.01 442.59 944.91 448.15 955.32 451.55 C 959.67 452.04 963.63 454.41 968.07 454.19 C 973.99 454.13 979.94 454.59 985.84 453.78 C 997.63 452.18 1008.90 447.51 1018.58 440.62 C 1019.78 439.79 1020.44 438.45 1021.22 437.26 C 1025.68 434.10 1029.96 430.62 1033.70 426.61 C 1033.35 433.63 1036.19 440.29 1035.80 447.31 C 1053.28 447.53 1070.78 447.31 1088.27 447.43 C 1088.83 445.80 1089.49 444.20 1090.25 442.65 C 1091.34 442.65 1092.44 442.66 1093.56 442.66 C 1099.40 417.75 1105.38 392.88 1111.19 367.96 C 1120.15 368.19 1129.12 367.92 1138.09 368.10 C 1136.84 374.12 1135.08 380.03 1134.16 386.13 C 1132.33 393.36 1130.32 400.56 1128.96 407.91 C 1127.14 413.48 1126.00 419.25 1124.93 425.01 C 1122.77 432.35 1121.65 439.93 1119.64 447.31 C 1143.42 447.52 1167.20 447.34 1190.98 447.40 C 1215.33 447.28 1239.69 447.66 1264.04 447.21 C 1264.10 445.70 1264.17 444.18 1264.24 442.68 C 1265.52 442.38 1268.16 443.45 1268.41 441.47 C 1273.32 420.73 1278.30 400.00 1283.10 379.23 C 1263.01 379.27 1242.93 379.24 1222.84 379.25 C 1223.79 375.10 1224.75 370.96 1225.74 366.82 L 1225.81 368.04 C 1251.87 368.09 1277.94 367.97 1304.00 368.09 C 1303.75 370.56 1303.40 373.04 1302.55 375.38 C 1300.70 380.18 1300.72 385.42 1299.11 390.29 C 1295.27 404.39 1292.70 418.79 1288.77 432.88 C 1287.75 437.70 1286.96 442.56 1285.60 447.30 C 1313.19 447.60 1340.78 447.22 1368.36 447.49 C 1368.94 445.91 1369.38 444.29 1369.71 442.64 C 1371.05 442.65 1372.40 442.67 1373.78 442.69 C 1379.80 417.41 1385.78 392.12 1391.74 366.82 L 1391.71 368.02 C 1398.15 368.09 1404.60 367.99 1411.05 368.07 C 1410.69 373.16 1409.25 378.04 1407.73 382.88 C 1405.93 392.24 1403.00 401.36 1401.39 410.78 C 1399.22 423.09 1394.24 434.83 1393.32 447.37 C 1418.97 447.46 1444.62 447.34 1470.28 447.44 C 1470.73 445.84 1471.13 444.23 1471.56 442.63 C 1472.77 442.61 1474.01 442.61 1475.27 442.61 C 1481.02 417.72 1487.03 392.89 1492.79 368.00 C 1530.15 368.13 1567.51 367.96 1604.88 368.08 C 1604.54 378.76 1605.20 389.40 1606.44 400.00 C 1606.93 413.47 1610.47 427.90 1620.53 437.51 C 1627.86 445.18 1638.11 448.99 1648.04 452.02 C 1660.19 454.80 1672.87 454.82 1685.21 453.46 C 1692.00 451.94 1698.90 450.38 1705.07 447.03 C 1708.52 445.10 1712.69 443.73 1714.82 440.13 L 1712.85 440.75 C 1720.28 436.16 1727.40 430.63 1732.11 423.16 C 1735.59 417.86 1737.29 411.65 1738.31 405.46 C 1740.40 392.72 1740.58 379.77 1740.63 366.91 L 1740.92 367.57 C 1745.20 368.75 1750.09 367.62 1754.62 368.17 C 1754.57 395.48 1754.40 422.80 1754.70 450.11 C 1770.88 450.14 1787.07 450.12 1803.26 450.11 C 1803.27 448.40 1803.30 446.70 1803.37 445.00 C 1804.98 445.00 1806.59 444.99 1808.25 445.00 C 1808.20 418.97 1808.31 392.95 1808.34 366.92 C 1808.93 367.72 1809.70 368.35 1810.63 368.83 C 1811.58 374.22 1812.03 379.70 1813.43 385.02 C 1813.52 392.46 1815.87 399.58 1816.53 406.97 C 1818.60 418.02 1818.63 429.35 1821.31 440.29 C 1821.84 443.07 1821.58 445.95 1822.15 448.74 C 1822.86 450.74 1825.35 449.90 1826.98 450.16 C 1836.67 450.00 1846.36 450.29 1856.05 450.04 C 1858.58 449.98 1857.90 446.64 1858.38 444.97 C 1859.73 444.94 1861.10 444.93 1862.50 444.93 C 1865.77 418.97 1869.51 393.08 1872.73 367.13 C 1873.63 367.71 1874.60 368.19 1875.66 368.57 C 1875.66 395.75 1875.53 422.93 1875.77 450.11 C 1891.91 450.13 1908.06 450.12 1924.20 450.12 C 1924.46 448.38 1924.84 446.66 1925.35 444.98 C 1926.72 444.97 1928.12 444.96 1929.54 444.96 C 1929.44 419.31 1929.55 393.67 1929.48 368.02 C 1934.84 368.07 1940.22 367.96 1945.60 368.15 C 1945.57 395.47 1945.39 422.80 1945.69 450.11 C 1972.81 450.14 1999.92 450.11 2027.04 450.12 C 2037.06 449.30 2047.52 448.44 2056.46 443.38 C 2058.90 442.04 2061.72 440.68 2062.76 437.87 C 2071.57 432.81 2076.14 422.82 2076.95 413.01 C 2078.62 398.07 2078.21 383.01 2078.22 368.01 C 2082.12 368.03 2086.03 368.07 2089.95 368.04 C 2090.00 396.86 2089.88 425.68 2090.01 454.49 C 2090.70 453.68 2091.58 453.30 2092.63 453.35 L 2092.44 452.44 C 2176.18 397.04 2260.06 341.85 2343.72 286.33 C 2259.58 230.75 2175.45 175.15 2091.30 119.59 L 2091.34 120.12 C 2089.60 121.18 2090.04 123.30 2089.92 124.97 C 2089.97 151.96 2089.99 178.94 2089.91 205.93 C 2009.95 205.69 1929.99 205.89 1850.03 205.83 C 1743.72 205.91 1637.40 205.83 1531.09 205.88 C 1533.37 194.73 1535.07 183.37 1534.56 171.96 C 1534.23 164.15 1532.51 156.23 1528.37 149.52 C 1523.42 140.87 1515.05 134.31 1505.47 131.59 C 1496.14 129.00 1486.42 128.39 1476.82 127.64 C 1440.03 125.50 1403.16 126.47 1366.34 126.26 C 1366.05 127.42 1365.80 128.58 1365.56 129.74 C 1363.88 130.21 1360.89 128.96 1360.33 131.27 C 1358.78 136.43 1358.25 141.83 1356.79 147.01 C 1354.29 154.89 1353.35 163.15 1350.82 171.03 C 1348.46 182.71 1345.09 194.16 1342.88 205.88 C 1316.54 205.85 1290.19 205.86 1263.85 205.87 C 1264.76 202.03 1265.67 198.19 1266.55 194.33 C 1283.45 194.49 1300.36 194.34 1317.26 194.41 C 1317.84 192.79 1318.52 191.20 1319.29 189.65 C 1320.39 189.66 1321.49 189.66 1322.62 189.67 C 1327.59 168.52 1332.67 147.39 1337.59 126.23 C 1291.84 126.28 1246.09 126.22 1200.34 126.26 C 1200.05 127.47 1199.79 128.69 1199.52 129.90 C 1197.96 129.85 1196.41 129.82 1194.87 129.79 C 1193.09 133.98 1192.76 138.55 1191.71 142.93 C 1186.84 163.94 1181.31 184.77 1176.89 205.88 C 1167.55 205.85 1158.22 205.86 1148.89 205.87 C 1150.88 193.10 1152.56 180.00 1150.58 167.11 C 1148.51 154.60 1140.47 143.89 1130.63 136.27 C 1118.31 126.33 1102.52 121.88 1087.00 120.35 C 1067.64 118.56 1047.74 119.93 1029.30 126.39 C 1013.57 131.83 999.45 141.24 987.25 152.46 C 984.50 152.77 982.47 154.74 980.73 156.70 C 975.34 162.76 969.79 168.85 966.18 176.18 C 961.37 185.63 957.89 195.72 954.90 205.88 C 946.12 205.85 937.33 205.85 928.55 205.88 C 930.43 194.04 931.93 181.97 930.66 169.98 C 929.64 159.89 924.77 150.44 917.83 143.14 C 906.46 130.76 890.35 123.72 873.91 121.29 C 853.38 118.28 832.05 119.12 812.17 125.32 Z" />
<path fill="#006885" opacity="1.00" d=" M 820.52 205.86 C 823.09 196.45 824.99 186.57 830.17 178.16 C 833.53 178.26 836.97 178.02 840.29 178.75 C 842.32 179.79 844.58 181.52 844.70 184.01 C 845.30 191.40 843.54 198.69 842.09 205.88 C 834.90 205.84 827.71 205.87 820.52 205.86 Z" />
<path fill="#006885" opacity="1.00" d=" M 1049.78 179.20 C 1053.44 179.11 1057.13 178.80 1060.79 179.23 C 1062.88 179.31 1064.64 181.16 1064.72 183.24 C 1065.52 190.87 1064.02 198.49 1062.36 205.90 C 1055.19 205.82 1048.02 205.87 1040.86 205.87 C 1043.25 196.82 1045.27 187.49 1049.78 179.20 Z" />
<path fill="#006885" opacity="1.00" d=" M 1434.66 185.25 L 1434.74 185.26 C 1440.34 185.39 1447.23 186.53 1450.06 192.04 C 1451.39 196.51 1450.70 201.34 1449.98 205.87 C 1443.27 205.85 1436.56 205.86 1429.86 205.86 C 1431.44 198.99 1433.18 192.15 1434.66 185.25 Z" />
<path fill="#006885" opacity="1.00" d=" M 496.89 185.95 C 501.71 186.26 507.67 185.76 511.06 189.93 C 514.86 194.42 513.35 200.69 512.28 205.90 C 505.59 205.83 498.91 205.86 492.23 205.88 C 493.70 199.21 495.36 192.60 496.89 185.95 Z" />
<path fill="#006885" opacity="1.00" d=" M 1000.61 390.28 C 999.04 382.60 1001.48 374.83 1002.61 367.24 C 1004.32 367.86 1006.13 368.19 1007.98 368.12 C 1014.03 368.01 1020.08 368.00 1026.13 368.09 C 1024.80 377.51 1021.04 386.48 1016.07 394.54 C 1010.88 396.25 1002.63 396.68 1000.61 390.28 Z" />
<path fill="#006885" opacity="1.00" d=" M 779.76 387.04 C 779.60 380.60 781.01 374.27 782.19 367.98 C 790.16 368.15 798.14 367.92 806.12 368.12 C 804.26 377.28 800.74 385.99 796.42 394.26 C 792.37 395.65 787.67 396.39 783.67 394.47 C 780.92 393.11 779.77 389.93 779.76 387.04 Z" />
<path fill="#006885" opacity="1.00" d=" M 1665.92 368.05 C 1670.54 368.00 1675.18 368.05 1679.81 368.10 C 1679.79 377.40 1679.78 386.70 1679.81 396.00 C 1679.82 401.87 1678.74 407.68 1678.61 413.55 C 1675.29 413.66 1671.33 413.84 1668.97 411.07 C 1666.58 407.90 1666.61 403.69 1666.21 399.92 C 1665.62 389.31 1666.04 378.67 1665.92 368.05 Z" />
<path fill="#006885" opacity="1.00" d=" M 2005.84 367.98 C 2009.78 368.02 2013.73 368.06 2017.70 368.15 C 2017.41 381.39 2018.37 394.75 2015.80 407.84 L 2015.79 407.94 C 2012.58 408.54 2009.34 408.90 2006.11 409.02 C 2005.89 395.34 2006.42 381.64 2005.84 367.98 Z" />
</g>
<g id="#ffffffff">
<path fill="#ffffff" opacity="1.00" d=" M 812.17 125.32 C 832.05 119.12 853.38 118.28 873.91 121.29 C 890.35 123.72 906.46 130.76 917.83 143.14 C 924.77 150.44 929.64 159.89 930.66 169.98 C 931.93 181.97 930.43 194.04 928.55 205.88 C 926.56 218.28 923.39 230.44 920.56 242.66 C 919.33 242.66 918.12 242.66 916.93 242.65 C 890.74 242.57 864.55 242.70 838.37 242.59 C 842.52 224.35 847.54 206.27 850.39 187.76 C 850.84 183.52 852.01 177.88 847.95 174.99 C 842.29 171.74 834.42 173.21 830.17 178.16 C 824.99 186.57 823.09 196.45 820.52 205.86 C 807.83 259.54 795.07 313.21 782.44 366.90 L 782.19 367.98 C 781.01 374.27 779.60 380.60 779.76 387.04 C 779.77 389.93 780.92 393.11 783.67 394.47 C 787.67 396.39 792.37 395.65 796.42 394.26 C 800.03 392.34 802.89 389.25 804.68 385.59 C 808.43 378.11 810.56 369.95 812.64 361.88 C 815.90 348.13 819.17 334.39 822.39 320.64 C 816.90 320.62 811.41 320.64 805.93 320.62 C 809.36 305.89 812.93 291.18 816.34 276.44 C 816.62 275.16 816.88 273.88 817.19 272.61 C 849.28 272.55 881.37 272.59 913.46 272.59 C 906.02 304.04 898.59 335.50 891.12 366.94 L 890.84 368.04 C 885.06 392.91 879.02 417.72 873.28 442.61 C 871.95 442.60 870.63 442.61 869.32 442.63 C 853.36 442.60 837.40 442.64 821.44 442.60 C 820.73 435.11 820.02 427.61 819.19 420.13 C 817.26 422.29 815.37 424.48 813.40 426.59 C 809.05 431.23 804.03 435.18 798.73 438.67 C 782.99 448.75 763.25 451.44 745.10 447.70 C 732.76 445.09 721.28 438.63 712.60 429.49 C 700.74 416.85 696.88 398.40 698.81 381.57 C 700.95 363.32 705.24 345.41 709.44 327.56 C 715.43 302.22 721.43 276.88 727.43 251.54 C 733.79 225.22 739.64 198.47 750.93 173.72 C 755.16 165.02 761.48 157.50 768.55 150.95 C 781.21 139.68 795.89 130.35 812.17 125.32 Z" />
<path fill="#ffffff" opacity="1.00" d=" M 1029.30 126.39 C 1047.74 119.93 1067.64 118.56 1087.00 120.35 C 1102.52 121.88 1118.31 126.33 1130.63 136.27 C 1140.47 143.89 1148.51 154.60 1150.58 167.11 C 1152.56 180.00 1150.88 193.10 1148.89 205.87 C 1146.86 218.28 1143.79 230.49 1140.82 242.70 C 1139.43 242.68 1138.06 242.66 1136.71 242.65 C 1110.72 242.60 1084.74 242.65 1058.77 242.63 C 1062.10 227.77 1065.90 213.03 1068.96 198.12 C 1069.99 192.43 1071.27 186.70 1071.13 180.89 C 1071.16 178.32 1069.91 175.64 1067.52 174.51 C 1061.48 171.80 1053.57 173.60 1049.78 179.20 C 1045.27 187.49 1043.25 196.82 1040.86 205.87 C 1028.08 259.65 1015.45 313.47 1002.61 367.24 C 1001.48 374.83 999.04 382.60 1000.61 390.28 C 1002.63 396.68 1010.88 396.25 1016.07 394.54 C 1024.54 390.72 1027.21 381.03 1029.92 372.97 C 1034.89 355.71 1038.43 338.07 1042.72 320.64 C 1037.23 320.63 1031.73 320.63 1026.25 320.63 C 1029.71 305.71 1033.43 290.85 1036.72 275.89 C 1037.32 274.81 1037.06 272.24 1038.92 272.62 C 1070.54 272.53 1102.16 272.61 1133.79 272.58 C 1126.36 304.02 1118.93 335.46 1111.46 366.89 L 1111.19 367.96 C 1105.38 392.88 1099.40 417.75 1093.56 442.66 C 1092.44 442.66 1091.34 442.65 1090.25 442.65 C 1074.21 442.51 1058.17 442.77 1042.14 442.53 C 1040.55 435.18 1040.54 427.54 1039.61 420.08 C 1037.64 422.26 1035.74 424.50 1033.70 426.61 C 1029.96 430.62 1025.68 434.10 1021.22 437.26 C 1008.93 445.70 993.90 449.85 979.03 449.23 C 959.66 449.17 940.23 440.08 928.73 424.35 C 920.02 411.85 917.47 395.89 919.19 380.98 C 921.10 365.20 924.61 349.67 928.19 334.21 C 936.46 299.52 944.53 264.77 952.91 230.11 C 957.46 212.27 962.29 194.41 969.53 177.45 C 973.50 167.93 979.86 159.58 987.25 152.46 C 999.45 141.24 1013.57 131.83 1029.30 126.39 Z" />
<path fill="#ffffff" opacity="1.00" d=" M 230.05 126.23 C 289.97 126.33 349.89 126.12 409.81 126.34 C 404.67 147.43 399.81 168.58 394.74 189.68 C 393.60 189.67 392.48 189.66 391.35 189.65 C 376.21 189.57 361.06 189.65 345.91 189.61 C 345.54 191.18 345.16 192.75 344.82 194.33 C 343.94 198.17 343.04 202.01 342.12 205.84 C 329.42 259.54 316.70 313.23 304.00 366.93 L 303.72 368.02 C 297.80 392.92 292.05 417.86 285.97 442.71 C 284.71 442.69 283.46 442.67 282.22 442.65 C 256.10 442.57 229.97 442.65 203.85 442.61 C 223.73 358.27 243.74 273.96 263.67 189.63 C 247.48 189.61 231.28 189.60 215.09 189.64 C 219.79 169.73 224.55 149.84 229.20 129.92 C 229.48 128.69 229.76 127.46 230.05 126.23 Z" />
<path fill="#ffffff" opacity="1.00" d=" M 428.64 126.30 C 455.41 126.22 482.18 126.14 508.95 126.48 C 525.28 126.84 541.66 127.26 557.85 129.51 C 565.58 130.56 573.37 132.71 579.74 137.38 C 589.07 144.10 595.08 155.00 596.40 166.37 C 597.97 179.58 596.12 192.92 593.47 205.87 C 589.95 221.74 585.91 237.76 578.20 252.19 C 575.18 258.00 570.85 263.03 565.69 267.06 C 555.53 273.55 543.56 276.27 531.71 277.51 C 534.85 278.53 538.05 279.39 541.18 280.44 C 548.14 283.26 555.56 286.59 559.88 293.06 C 564.31 300.09 567.34 308.50 565.98 316.91 C 563.52 333.77 559.30 350.31 555.46 366.89 L 555.19 367.95 C 549.38 392.87 543.41 417.75 537.55 442.66 C 536.46 442.66 535.38 442.65 534.31 442.65 C 509.92 442.58 485.53 442.63 461.14 442.63 C 469.49 407.44 477.80 372.25 486.12 337.07 C 487.87 329.14 489.73 321.17 490.15 313.04 C 490.19 309.75 490.41 305.66 487.38 303.53 C 482.29 300.07 475.79 300.23 469.90 299.90 C 469.50 301.55 469.10 303.20 468.73 304.86 C 463.88 325.56 458.95 346.24 454.06 366.93 L 453.79 368.02 C 448.01 392.53 442.23 417.04 436.38 441.53 C 436.09 443.48 433.50 442.35 432.21 442.68 C 406.11 442.54 380.00 442.66 353.89 442.61 C 378.51 338.30 403.32 234.03 427.89 129.71 C 428.13 128.57 428.38 127.44 428.64 126.30 M 498.15 180.33 C 497.72 182.20 497.29 184.07 496.89 185.95 C 495.36 192.60 493.70 199.21 492.23 205.88 L 492.13 205.88 C 488.71 220.81 485.10 235.69 481.59 250.60 C 487.81 250.68 494.05 249.99 499.95 247.97 L 500.01 247.83 C 505.46 245.49 507.76 239.61 509.73 234.46 C 513.27 224.25 515.21 213.58 517.81 203.11 C 518.84 197.27 520.52 190.39 516.84 185.14 C 511.96 180.41 504.51 180.53 498.15 180.33 Z" />
<path fill="#ffffff" opacity="1.00" d=" M 644.04 126.24 C 671.48 126.25 698.91 126.25 726.35 126.25 C 720.10 152.79 713.79 179.32 707.52 205.86 C 694.80 259.53 682.14 313.22 669.39 366.89 L 669.11 367.95 C 663.32 392.87 657.32 417.74 651.49 442.66 C 650.11 442.65 648.73 442.64 647.37 442.64 C 621.32 442.60 595.27 442.62 569.22 442.62 C 593.84 338.40 618.58 234.19 643.19 129.96 C 643.46 128.72 643.74 127.48 644.04 126.24 Z" />
<path fill="#ffffff" opacity="1.00" d=" M 1200.34 126.26 C 1246.09 126.22 1291.84 126.28 1337.59 126.23 C 1332.67 147.39 1327.59 168.52 1322.62 189.67 C 1321.49 189.66 1320.39 189.66 1319.29 189.65 C 1302.07 189.57 1284.85 189.64 1267.62 189.62 C 1267.25 191.19 1266.88 192.76 1266.55 194.33 C 1265.67 198.19 1264.76 202.03 1263.85 205.87 C 1260.43 220.45 1256.88 235.00 1253.55 249.60 C 1270.64 249.56 1287.73 249.60 1304.82 249.58 C 1300.11 269.62 1295.35 289.64 1290.62 309.67 C 1289.36 309.66 1288.12 309.66 1286.90 309.65 C 1271.00 309.62 1255.10 309.61 1239.20 309.66 C 1238.84 311.22 1238.49 312.79 1238.15 314.36 C 1234.05 331.85 1229.90 349.34 1225.74 366.82 C 1224.75 370.96 1223.79 375.10 1222.84 379.25 C 1242.93 379.24 1263.01 379.27 1283.10 379.23 C 1278.30 400.00 1273.32 420.73 1268.41 441.47 C 1268.16 443.45 1265.52 442.38 1264.24 442.68 C 1218.04 442.55 1171.83 442.63 1125.63 442.64 C 1150.08 338.35 1174.98 234.17 1199.52 129.90 C 1199.79 128.69 1200.05 127.47 1200.34 126.26 Z" />
<path fill="#ffffff" opacity="1.00" d=" M 1366.34 126.26 C 1403.16 126.47 1440.03 125.50 1476.82 127.64 C 1486.42 128.39 1496.14 129.00 1505.47 131.59 C 1515.05 134.31 1523.42 140.87 1528.37 149.52 C 1532.51 156.23 1534.23 164.15 1534.56 171.96 C 1535.07 183.37 1533.37 194.73 1531.09 205.88 C 1527.82 220.72 1523.93 235.58 1517.28 249.31 C 1514.03 256.08 1509.50 262.27 1503.52 266.88 C 1493.37 273.52 1481.31 276.23 1469.41 277.51 C 1472.10 278.36 1474.83 279.17 1477.52 280.08 C 1482.99 281.98 1488.37 284.40 1492.92 288.04 C 1497.84 291.95 1500.46 297.93 1502.46 303.72 C 1505.33 312.22 1502.86 321.18 1501.36 329.69 C 1498.89 342.17 1495.98 354.56 1493.06 366.94 L 1492.79 368.00 C 1487.03 392.89 1481.02 417.72 1475.27 442.61 C 1474.01 442.61 1472.77 442.61 1471.56 442.63 C 1447.32 442.60 1423.08 442.63 1398.85 442.61 C 1406.39 410.47 1414.06 378.35 1421.62 346.21 C 1424.17 335.24 1427.09 324.27 1427.85 312.99 C 1427.97 309.60 1427.95 305.33 1424.72 303.28 C 1419.57 300.12 1413.26 300.13 1407.42 299.97 C 1407.28 300.70 1406.99 302.15 1406.85 302.87 C 1401.89 324.20 1396.80 345.51 1391.74 366.82 C 1385.78 392.12 1379.80 417.41 1373.78 442.69 C 1372.40 442.67 1371.05 442.65 1369.71 442.64 C 1343.67 442.59 1317.64 442.64 1291.60 442.62 C 1316.13 338.30 1341.00 234.05 1365.56 129.74 C 1365.80 128.58 1366.05 127.42 1366.34 126.26 M 1434.74 185.26 L 1434.66 185.25 C 1433.18 192.15 1431.44 198.99 1429.86 205.86 C 1426.32 220.79 1422.77 235.71 1419.27 250.64 C 1425.37 250.66 1431.48 249.99 1437.32 248.11 C 1443.12 245.61 1445.57 239.39 1447.61 233.87 C 1450.97 223.97 1452.86 213.65 1455.39 203.52 C 1456.42 197.64 1458.12 190.84 1454.72 185.42 C 1449.92 180.34 1442.21 180.59 1435.77 180.29 C 1435.46 181.95 1435.08 183.60 1434.74 185.26 Z" />
<path fill="#ffffff" opacity="1.00" d=" M 1639.60 237.48 C 1655.14 229.37 1673.39 228.39 1690.48 230.70 C 1706.49 232.93 1722.52 240.67 1731.73 254.35 C 1736.59 261.73 1738.18 270.65 1739.28 279.27 C 1741.13 294.77 1740.55 310.40 1740.69 325.97 C 1739.14 325.97 1737.61 325.98 1736.11 325.99 C 1719.35 326.01 1702.59 326.00 1685.83 325.99 C 1685.65 310.00 1686.21 293.99 1685.49 278.01 C 1684.96 274.07 1685.38 268.86 1681.50 266.49 C 1676.88 264.23 1669.89 264.94 1667.55 270.12 C 1666.12 276.31 1665.94 282.69 1665.91 289.01 C 1665.92 314.79 1665.92 340.57 1665.92 366.34 C 1665.92 366.77 1665.92 367.62 1665.92 368.05 C 1666.04 378.67 1665.62 389.31 1666.21 399.92 C 1666.61 403.69 1666.58 407.90 1668.97 411.07 C 1671.33 413.84 1675.29 413.66 1678.61 413.55 C 1682.47 412.57 1684.59 408.88 1684.86 405.12 C 1686.51 391.38 1685.69 377.50 1685.79 363.70 C 1685.76 362.54 1685.74 361.39 1685.76 360.24 C 1704.07 360.26 1722.39 360.23 1740.71 360.26 C 1740.60 362.28 1740.55 364.30 1740.62 366.34 L 1740.63 366.91 C 1740.58 379.77 1740.40 392.72 1738.31 405.46 C 1737.29 411.65 1735.59 417.86 1732.11 423.16 C 1727.40 430.63 1720.28 436.16 1712.85 440.75 C 1702.23 446.60 1690.07 449.28 1678.00 449.24 C 1662.16 449.52 1645.50 446.96 1632.24 437.74 C 1623.71 431.95 1617.45 422.99 1615.09 412.94 C 1610.46 394.00 1611.04 374.33 1611.00 354.98 C 1611.00 337.99 1610.99 320.99 1611.01 304.00 C 1611.12 294.32 1611.38 284.62 1612.50 274.99 C 1613.80 263.91 1619.67 253.85 1627.31 245.91 C 1631.20 242.82 1635.10 239.67 1639.60 237.48 Z" />
<path fill="#ffffff" opacity="1.00" d=" M 1760.25 234.25 C 1783.92 234.30 1807.59 234.16 1831.27 234.32 C 1835.49 260.92 1838.77 287.66 1842.83 314.29 C 1843.58 320.31 1844.44 326.32 1845.57 332.29 C 1849.46 300.14 1853.94 268.05 1857.72 235.88 C 1857.84 235.46 1858.07 234.63 1858.18 234.22 C 1881.95 234.29 1905.71 234.25 1929.48 234.24 C 1929.51 278.48 1929.51 322.72 1929.47 366.95 L 1929.48 368.02 C 1929.55 393.67 1929.44 419.31 1929.54 444.96 C 1928.12 444.96 1926.72 444.97 1925.35 444.98 C 1910.76 445.02 1896.16 444.99 1881.57 445.00 C 1881.50 398.15 1881.35 351.30 1881.40 304.45 C 1879.02 317.57 1877.79 330.88 1875.86 344.07 C 1875.74 344.33 1875.50 344.84 1875.37 345.10 C 1875.07 352.50 1873.74 359.80 1872.73 367.13 C 1869.51 393.08 1865.77 418.97 1862.50 444.93 C 1861.10 444.93 1859.73 444.94 1858.38 444.97 C 1848.36 445.01 1838.35 445.02 1828.34 444.96 C 1822.33 402.27 1816.05 359.61 1809.97 316.93 C 1809.53 313.78 1809.02 310.65 1808.43 307.53 C 1808.30 321.70 1808.15 335.87 1808.35 350.04 C 1808.52 355.66 1808.60 361.30 1808.34 366.92 C 1808.31 392.95 1808.20 418.97 1808.25 445.00 C 1806.59 444.99 1804.98 445.00 1803.37 445.00 C 1789.00 444.99 1774.64 445.02 1760.28 444.98 C 1760.29 376.11 1760.27 307.24 1760.27 238.38 C 1760.24 237.00 1760.23 235.62 1760.25 234.25 Z" />
<path fill="#ffffff" opacity="1.00" d=" M 1951.24 234.26 C 1975.49 234.41 1999.77 233.78 2024.00 235.10 C 2035.20 235.87 2046.82 236.74 2056.97 242.01 C 2066.45 246.69 2073.38 255.88 2075.92 266.08 C 2077.95 275.57 2077.81 285.35 2078.15 295.01 C 2078.36 318.96 2078.24 342.91 2078.22 366.85 L 2078.22 368.01 C 2078.21 383.01 2078.62 398.07 2076.95 413.01 C 2076.14 422.82 2071.57 432.81 2062.76 437.87 C 2052.00 444.26 2039.11 444.48 2026.98 444.97 C 2001.75 445.03 1976.51 445.00 1951.28 444.98 C 1951.29 376.11 1951.28 307.25 1951.27 238.38 C 1951.23 237.00 1951.22 235.63 1951.24 234.26 M 2005.94 270.35 C 2005.95 272.15 2006.02 273.96 2006.11 275.76 C 2006.14 306.06 2005.89 336.37 2006.24 366.67 C 2006.14 366.99 2005.94 367.65 2005.84 367.98 C 2006.42 381.64 2005.89 395.34 2006.11 409.02 C 2009.34 408.90 2012.58 408.54 2015.79 407.94 L 2015.80 407.84 C 2019.33 406.79 2021.71 403.69 2022.07 400.06 C 2024.00 388.14 2023.29 375.99 2023.46 363.96 C 2023.36 338.29 2023.67 312.62 2023.27 286.95 C 2022.90 282.28 2023.53 276.65 2019.70 273.18 C 2015.83 270.15 2010.57 270.53 2005.94 270.35 Z" />
</g>
<g id="#313132ff">
<path fill="#313132" opacity="1.00" d=" M 2089.92 124.97 C 2090.04 123.30 2089.60 121.18 2091.34 120.12 C 2091.60 123.08 2091.80 126.05 2091.84 129.03 C 2091.97 154.68 2092.16 180.34 2091.76 205.99 C 2091.29 205.98 2090.37 205.94 2089.91 205.93 C 2089.99 178.94 2089.97 151.96 2089.92 124.97 Z" />
<path fill="#313132" opacity="1.00" d=" M 224.04 129.85 C 225.76 129.90 227.48 129.92 229.20 129.92 C 224.55 149.84 219.79 169.73 215.09 189.64 C 231.28 189.60 247.48 189.61 263.67 189.63 C 243.74 273.96 223.73 358.27 203.85 442.61 C 229.97 442.65 256.10 442.57 282.22 442.65 C 282.16 444.16 282.09 445.67 282.03 447.18 C 254.13 447.67 226.21 447.30 198.31 447.37 C 199.61 433.62 204.79 420.59 207.11 407.02 C 208.83 401.75 209.25 396.17 211.04 390.92 C 212.53 386.64 212.66 382.03 214.24 377.77 C 215.44 374.67 215.54 371.32 216.06 368.08 C 198.69 367.99 181.33 368.07 163.97 368.05 C 163.90 315.69 164.03 263.33 163.90 210.97 C 164.21 209.41 163.13 206.80 165.49 206.42 C 165.72 259.86 165.56 313.31 165.57 366.75 C 182.70 366.90 199.83 366.82 216.96 366.79 C 229.55 313.13 242.31 259.52 254.97 205.88 C 255.83 202.05 256.85 198.25 257.74 194.43 C 241.63 194.33 225.52 194.48 209.41 194.35 C 211.04 186.55 212.69 178.75 214.60 171.01 C 215.03 166.20 217.48 161.87 217.83 157.04 C 220.27 148.06 222.41 138.98 224.04 129.85 Z" />
<path fill="#313132" opacity="1.00" d=" M 422.58 130.30 C 424.35 130.13 426.11 129.90 427.89 129.71 C 403.32 234.03 378.51 338.30 353.89 442.61 C 380.00 442.66 406.11 442.54 432.21 442.68 C 432.16 444.19 432.11 445.70 432.05 447.23 C 404.14 447.61 376.21 447.34 348.29 447.36 C 349.60 439.55 351.76 431.91 353.22 424.13 C 355.40 417.18 356.20 409.91 358.47 402.98 C 361.14 391.31 364.10 379.74 366.60 368.03 C 345.64 368.05 324.68 368.06 303.72 368.02 L 304.00 366.93 C 324.31 366.66 344.63 366.94 364.95 366.81 C 367.32 367.38 367.56 364.74 368.05 363.12 C 380.22 310.67 393.01 258.36 405.06 205.88 C 407.70 194.65 409.86 183.30 413.12 172.21 C 414.10 164.66 417.07 157.56 418.10 150.01 C 419.56 143.43 421.28 136.91 422.58 130.30 Z" />
<path fill="#313132" opacity="1.00" d=" M 638.03 129.80 C 639.74 129.92 641.46 129.97 643.19 129.96 C 618.58 234.19 593.84 338.40 569.22 442.62 C 595.27 442.62 621.32 442.60 647.37 442.64 C 647.28 444.17 647.19 445.71 647.11 447.25 C 619.23 447.56 591.34 447.38 563.46 447.34 C 564.65 440.85 566.68 434.55 567.73 428.03 C 568.69 421.47 571.50 415.35 572.40 408.77 C 573.55 400.36 576.90 392.45 578.04 384.04 C 579.10 378.68 581.23 373.59 581.97 368.16 C 573.04 367.85 564.11 368.23 555.19 367.95 L 555.46 366.89 C 564.47 366.66 573.48 367.02 582.48 366.70 C 595.17 313.12 607.87 259.53 620.47 205.93 C 622.19 195.85 625.50 186.17 627.33 176.12 C 630.51 160.59 635.43 145.44 638.03 129.80 Z" />
<path fill="#313132" opacity="1.00" d=" M 1194.87 129.79 C 1196.41 129.82 1197.96 129.85 1199.52 129.90 C 1174.98 234.17 1150.08 338.35 1125.63 442.64 C 1171.83 442.63 1218.04 442.55 1264.24 442.68 C 1264.17 444.18 1264.10 445.70 1264.04 447.21 C 1239.69 447.66 1215.33 447.28 1190.98 447.40 C 1167.20 447.34 1143.42 447.52 1119.64 447.31 C 1121.65 439.93 1122.77 432.35 1124.93 425.01 C 1126.00 419.25 1127.14 413.48 1128.96 407.91 C 1130.32 400.56 1132.33 393.36 1134.16 386.13 C 1135.08 380.03 1136.84 374.12 1138.09 368.10 C 1129.12 367.92 1120.15 368.19 1111.19 367.96 L 1111.46 366.89 C 1120.51 366.53 1129.60 367.25 1138.64 366.59 C 1141.36 357.97 1142.61 348.96 1145.08 340.26 C 1155.66 295.46 1166.23 250.66 1176.89 205.88 C 1181.31 184.77 1186.84 163.94 1191.71 142.93 C 1192.76 138.55 1193.09 133.98 1194.87 129.79 Z" />
<path fill="#313132" opacity="1.00" d=" M 1360.33 131.27 C 1360.89 128.96 1363.88 130.21 1365.56 129.74 C 1341.00 234.05 1316.13 338.30 1291.60 442.62 C 1317.64 442.64 1343.67 442.59 1369.71 442.64 C 1369.38 444.29 1368.94 445.91 1368.36 447.49 C 1340.78 447.22 1313.19 447.60 1285.60 447.30 C 1286.96 442.56 1287.75 437.70 1288.77 432.88 C 1292.70 418.79 1295.27 404.39 1299.11 390.29 C 1300.72 385.42 1300.70 380.18 1302.55 375.38 C 1303.40 373.04 1303.75 370.56 1304.00 368.09 C 1277.94 367.97 1251.87 368.09 1225.81 368.04 L 1225.74 366.82 C 1252.05 366.81 1278.37 366.86 1304.68 366.80 C 1317.61 313.21 1330.10 259.51 1342.88 205.88 C 1345.09 194.16 1348.46 182.71 1350.82 171.03 C 1353.35 163.15 1354.29 154.89 1356.79 147.01 C 1358.25 141.83 1358.78 136.43 1360.33 131.27 Z" />
<path fill="#313132" opacity="1.00" d=" M 766.46 151.32 C 766.98 151.22 768.03 151.04 768.55 150.95 C 761.48 157.50 755.16 165.02 750.93 173.72 C 739.64 198.47 733.79 225.22 727.43 251.54 C 721.43 276.88 715.43 302.22 709.44 327.56 C 705.24 345.41 700.95 363.32 698.81 381.57 C 696.88 398.40 700.74 416.85 712.60 429.49 C 721.28 438.63 732.76 445.09 745.10 447.70 C 763.25 451.44 782.99 448.75 798.73 438.67 C 798.41 439.95 797.71 440.97 796.64 441.72 C 786.42 448.84 774.29 452.65 762.03 454.20 C 757.00 454.22 751.96 454.37 746.95 454.07 C 736.74 452.07 726.26 449.57 717.68 443.37 C 707.93 437.18 699.89 427.84 696.27 416.79 C 695.15 411.83 692.65 407.16 692.68 401.99 C 692.54 393.34 692.17 384.56 693.98 376.04 C 694.56 373.41 694.69 370.72 695.09 368.06 C 686.43 367.96 677.77 368.18 669.11 367.95 L 669.39 366.89 C 678.21 366.71 687.04 366.89 695.88 366.82 C 703.09 332.40 711.90 298.32 719.72 264.03 C 724.31 244.58 728.88 225.11 734.48 205.92 C 737.10 197.09 740.23 188.40 743.91 179.96 C 748.96 168.76 757.15 159.17 766.46 151.32 Z" />
<path fill="#313132" opacity="1.00" d=" M 980.73 156.70 C 982.47 154.74 984.50 152.77 987.25 152.46 C 979.86 159.58 973.50 167.93 969.53 177.45 C 962.29 194.41 957.46 212.27 952.91 230.11 C 944.53 264.77 936.46 299.52 928.19 334.21 C 924.61 349.67 921.10 365.20 919.19 380.98 C 917.47 395.89 920.02 411.85 928.73 424.35 C 940.23 440.08 959.66 449.17 979.03 449.23 C 993.90 449.85 1008.93 445.70 1021.22 437.26 C 1020.44 438.45 1019.78 439.79 1018.58 440.62 C 1008.90 447.51 997.63 452.18 985.84 453.78 C 979.94 454.59 973.99 454.13 968.07 454.19 C 963.63 454.41 959.67 452.04 955.32 451.55 C 944.91 448.15 935.01 442.59 927.51 434.51 C 918.13 425.52 914.33 412.45 912.75 399.94 C 912.79 392.90 912.31 385.78 913.77 378.85 C 914.41 375.24 915.07 371.63 915.72 368.02 C 907.42 368.05 899.13 368.05 890.84 368.04 L 891.12 366.94 C 899.03 366.55 906.95 367.10 914.86 366.74 C 916.76 366.89 916.59 364.44 917.10 363.22 C 919.22 351.40 922.28 339.77 924.95 328.06 C 932.13 297.87 939.16 267.66 946.42 237.49 C 948.95 226.87 951.80 216.34 954.90 205.88 C 957.89 195.72 961.37 185.63 966.18 176.18 C 969.79 168.85 975.34 162.76 980.73 156.70 Z" />
<path fill="#313132" opacity="1.00" d=" M 1049.78 179.20 C 1053.57 173.60 1061.48 171.80 1067.52 174.51 C 1069.91 175.64 1071.16 178.32 1071.13 180.89 C 1071.27 186.70 1069.99 192.43 1068.96 198.12 C 1065.90 213.03 1062.10 227.77 1058.77 242.63 C 1084.74 242.65 1110.72 242.60 1136.71 242.65 C 1136.52 244.19 1136.35 245.74 1136.20 247.30 C 1108.46 247.47 1080.72 247.42 1052.99 247.32 C 1055.70 233.42 1059.64 219.80 1062.36 205.90 C 1064.02 198.49 1065.52 190.87 1064.72 183.24 C 1064.64 181.16 1062.88 179.31 1060.79 179.23 C 1057.13 178.80 1053.44 179.11 1049.78 179.20 Z" />
<path fill="#313132" opacity="1.00" d=" M 830.17 178.16 C 834.42 173.21 842.29 171.74 847.95 174.99 C 852.01 177.88 850.84 183.52 850.39 187.76 C 847.54 206.27 842.52 224.35 838.37 242.59 C 864.55 242.70 890.74 242.57 916.93 242.65 C 916.09 244.14 915.59 245.76 915.45 247.45 C 887.81 247.27 860.16 247.51 832.51 247.33 C 835.68 233.51 839.12 219.75 842.09 205.88 C 843.54 198.69 845.30 191.40 844.70 184.01 C 844.58 181.52 842.32 179.79 840.29 178.75 C 836.97 178.02 833.53 178.26 830.17 178.16 Z" />
<path fill="#313132" opacity="1.00" d=" M 498.15 180.33 C 504.51 180.53 511.96 180.41 516.84 185.14 C 520.52 190.39 518.84 197.27 517.81 203.11 C 515.21 213.58 513.27 224.25 509.73 234.46 C 507.76 239.61 505.46 245.49 500.01 247.83 C 506.61 234.71 508.77 220.03 512.28 205.90 C 513.35 200.69 514.86 194.42 511.06 189.93 C 507.67 185.76 501.71 186.26 496.89 185.95 C 497.29 184.07 497.72 182.20 498.15 180.33 Z" />
<path fill="#313132" opacity="1.00" d=" M 1434.74 185.26 C 1435.08 183.60 1435.46 181.95 1435.77 180.29 C 1442.21 180.59 1449.92 180.34 1454.72 185.42 C 1458.12 190.84 1456.42 197.64 1455.39 203.52 C 1452.86 213.65 1450.97 223.97 1447.61 233.87 C 1445.57 239.39 1443.12 245.61 1437.32 248.11 C 1444.53 235.08 1446.24 220.07 1449.98 205.87 C 1450.70 201.34 1451.39 196.51 1450.06 192.04 C 1447.23 186.53 1440.34 185.39 1434.74 185.26 Z" />
<path fill="#313132" opacity="1.00" d=" M 344.82 194.33 C 345.16 192.75 345.54 191.18 345.91 189.61 C 361.06 189.65 376.21 189.57 391.35 189.65 C 390.85 191.18 390.41 192.73 390.03 194.30 C 374.96 194.48 359.88 194.43 344.82 194.33 Z" />
<path fill="#313132" opacity="1.00" d=" M 1266.55 194.33 C 1266.88 192.76 1267.25 191.19 1267.62 189.62 C 1284.85 189.64 1302.07 189.57 1319.29 189.65 C 1318.52 191.20 1317.84 192.79 1317.26 194.41 C 1300.36 194.34 1283.45 194.49 1266.55 194.33 Z" />
<path fill="#313132" opacity="1.00" d=" M 1857.03 237.97 C 1857.20 237.45 1857.55 236.40 1857.72 235.88 C 1853.94 268.05 1849.46 300.14 1845.57 332.29 C 1844.44 326.32 1843.58 320.31 1842.83 314.29 C 1844.51 297.50 1847.20 280.83 1848.98 264.06 C 1849.64 255.30 1851.65 246.70 1852.09 237.92 C 1853.71 237.93 1855.36 237.95 1857.03 237.97 Z" />
<path fill="#313132" opacity="1.00" d=" M 1754.56 238.43 C 1756.44 238.39 1758.34 238.38 1760.27 238.38 C 1760.27 307.24 1760.29 376.11 1760.28 444.98 C 1774.64 445.02 1789.00 444.99 1803.37 445.00 C 1803.30 446.70 1803.27 448.40 1803.26 450.11 C 1787.07 450.12 1770.88 450.14 1754.70 450.11 C 1754.40 422.80 1754.57 395.48 1754.62 368.17 C 1750.09 367.62 1745.20 368.75 1740.92 367.57 L 1740.63 366.91 L 1740.62 366.34 C 1745.28 366.53 1749.96 366.61 1754.64 366.73 C 1754.45 323.97 1754.60 281.20 1754.56 238.43 Z" />
<path fill="#313132" opacity="1.00" d=" M 1945.57 238.43 C 1947.44 238.39 1949.34 238.38 1951.27 238.38 C 1951.28 307.25 1951.29 376.11 1951.28 444.98 C 1976.51 445.00 2001.75 445.03 2026.98 444.97 C 2039.11 444.48 2052.00 444.26 2062.76 437.87 C 2061.72 440.68 2058.90 442.04 2056.46 443.38 C 2047.52 448.44 2037.06 449.30 2027.04 450.12 C 1999.92 450.11 1972.81 450.14 1945.69 450.11 C 1945.39 422.80 1945.57 395.47 1945.60 368.15 C 1940.22 367.96 1934.84 368.07 1929.48 368.02 L 1929.47 366.95 C 1934.84 366.45 1940.26 366.45 1945.65 366.75 C 1945.44 323.97 1945.60 281.20 1945.57 238.43 Z" />
<path fill="#313132" opacity="1.00" d=" M 1610.70 265.73 C 1614.44 257.92 1619.64 250.29 1627.31 245.91 C 1619.67 253.85 1613.80 263.91 1612.50 274.99 C 1611.38 284.62 1611.12 294.32 1611.01 304.00 C 1610.99 320.99 1611.00 337.99 1611.00 354.98 C 1611.04 374.33 1610.46 394.00 1615.09 412.94 C 1617.45 422.99 1623.71 431.95 1632.24 437.74 C 1645.50 446.96 1662.16 449.52 1678.00 449.24 C 1690.07 449.28 1702.23 446.60 1712.85 440.75 L 1714.82 440.13 C 1712.69 443.73 1708.52 445.10 1705.07 447.03 C 1698.90 450.38 1692.00 451.94 1685.21 453.46 C 1672.87 454.82 1660.19 454.80 1648.04 452.02 C 1638.11 448.99 1627.86 445.18 1620.53 437.51 C 1610.47 427.90 1606.93 413.47 1606.44 400.00 C 1605.20 389.40 1604.54 378.76 1604.88 368.08 C 1567.51 367.96 1530.15 368.13 1492.79 368.00 L 1493.06 366.94 C 1530.33 366.67 1567.62 366.90 1604.89 366.83 C 1604.96 344.53 1604.89 322.23 1604.93 299.93 C 1605.78 288.42 1605.56 276.36 1610.70 265.73 Z" />
<path fill="#313132" opacity="1.00" d=" M 1667.55 270.12 C 1669.89 264.94 1676.88 264.23 1681.50 266.49 C 1685.38 268.86 1684.96 274.07 1685.49 278.01 C 1686.21 293.99 1685.65 310.00 1685.83 325.99 C 1702.59 326.00 1719.35 326.01 1736.11 325.99 C 1736.06 327.68 1736.04 329.37 1736.04 331.06 C 1717.32 331.09 1698.60 331.10 1679.88 331.06 C 1679.74 318.03 1679.85 305.00 1679.82 291.96 C 1679.67 285.90 1680.18 279.62 1678.21 273.79 C 1676.49 269.54 1671.21 270.34 1667.55 270.12 Z" />
<path fill="#313132" opacity="1.00" d=" M 531.71 277.51 C 543.56 276.27 555.53 273.55 565.69 267.06 C 559.40 274.41 549.77 276.89 541.18 280.44 C 538.05 279.39 534.85 278.53 531.71 277.51 Z" />
<path fill="#313132" opacity="1.00" d=" M 1469.41 277.51 C 1481.31 276.23 1493.37 273.52 1503.52 266.88 C 1496.82 274.35 1487.00 277.77 1477.52 280.08 C 1474.83 279.17 1472.10 278.36 1469.41 277.51 Z" />
<path fill="#313132" opacity="1.00" d=" M 2005.94 270.35 C 2010.57 270.53 2015.83 270.15 2019.70 273.18 C 2023.53 276.65 2022.90 282.28 2023.27 286.95 C 2023.67 312.62 2023.36 338.29 2023.46 363.96 C 2023.29 375.99 2024.00 388.14 2022.07 400.06 C 2021.71 403.69 2019.33 406.79 2015.80 407.84 C 2018.37 394.75 2017.41 381.39 2017.70 368.15 C 2013.73 368.06 2009.78 368.02 2005.84 367.98 C 2005.94 367.65 2006.14 366.99 2006.24 366.67 C 2010.05 366.53 2013.88 366.56 2017.71 366.78 C 2017.50 341.27 2017.86 315.76 2017.51 290.26 C 2017.07 285.66 2017.31 279.76 2012.95 276.93 C 2010.79 276.01 2008.37 276.08 2006.11 275.76 C 2006.02 273.96 2005.95 272.15 2005.94 270.35 Z" />
<path fill="#313132" opacity="1.00" d=" M 1031.77 276.71 C 1033.41 276.43 1035.05 276.16 1036.72 275.89 C 1033.43 290.85 1029.71 305.71 1026.25 320.63 C 1031.73 320.63 1037.23 320.63 1042.72 320.64 C 1038.43 338.07 1034.89 355.71 1029.92 372.97 C 1027.21 381.03 1024.54 390.72 1016.07 394.54 C 1021.04 386.48 1024.80 377.51 1026.13 368.09 C 1020.08 368.00 1014.03 368.01 1007.98 368.12 C 1006.13 368.19 1004.32 367.86 1002.61 367.24 C 1010.78 366.27 1019.03 367.23 1027.24 366.64 C 1030.27 352.86 1033.81 339.19 1036.84 325.41 C 1031.36 325.39 1025.88 325.40 1020.41 325.33 C 1024.16 309.11 1028.11 292.95 1031.77 276.71 Z" />
<path fill="#313132" opacity="1.00" d=" M 811.20 278.01 C 811.60 275.70 814.74 276.95 816.34 276.44 C 812.93 291.18 809.36 305.89 805.93 320.62 C 811.41 320.64 816.90 320.62 822.39 320.64 C 819.17 334.39 815.90 348.13 812.64 361.88 C 810.56 369.95 808.43 378.11 804.68 385.59 C 802.89 389.25 800.03 392.34 796.42 394.26 C 800.74 385.99 804.26 377.28 806.12 368.12 C 798.14 367.92 790.16 368.15 782.19 367.98 L 782.44 366.90 C 790.52 366.69 798.61 366.92 806.70 366.80 C 809.50 355.89 811.87 344.88 814.62 333.96 C 815.32 331.13 815.66 328.24 816.02 325.35 C 810.76 325.38 805.49 325.42 800.24 325.37 C 803.51 309.50 807.56 293.79 811.20 278.01 Z" />
<path fill="#313132" opacity="1.00" d=" M 468.73 304.86 C 469.10 303.20 469.50 301.55 469.90 299.90 C 475.79 300.23 482.29 300.07 487.38 303.53 C 490.41 305.66 490.19 309.75 490.15 313.04 C 489.73 321.17 487.87 329.14 486.12 337.07 C 477.80 372.25 469.49 407.44 461.14 442.63 C 485.53 442.63 509.92 442.58 534.31 442.65 C 533.53 444.20 532.84 445.78 532.24 447.41 C 506.62 447.36 480.99 447.49 455.37 447.34 C 458.00 435.13 460.41 422.85 463.75 410.81 C 467.35 396.63 469.79 382.16 474.00 368.15 C 467.26 367.93 460.52 368.10 453.79 368.02 L 454.06 366.93 C 460.81 366.64 467.56 366.99 474.32 366.72 C 476.37 358.31 478.06 349.81 480.29 341.45 C 482.74 331.40 484.99 320.97 483.54 310.61 C 480.74 305.43 473.87 305.42 468.73 304.86 Z" />
<path fill="#313132" opacity="1.00" d=" M 1407.42 299.97 C 1413.26 300.13 1419.57 300.12 1424.72 303.28 C 1427.95 305.33 1427.97 309.60 1427.85 312.99 C 1427.09 324.27 1424.17 335.24 1421.62 346.21 C 1414.06 378.35 1406.39 410.47 1398.85 442.61 C 1423.08 442.63 1447.32 442.60 1471.56 442.63 C 1471.13 444.23 1470.73 445.84 1470.28 447.44 C 1444.62 447.34 1418.97 447.46 1393.32 447.37 C 1394.24 434.83 1399.22 423.09 1401.39 410.78 C 1403.00 401.36 1405.93 392.24 1407.73 382.88 C 1409.25 378.04 1410.69 373.16 1411.05 368.07 C 1404.60 367.99 1398.15 368.09 1391.71 368.02 L 1391.74 366.82 C 1398.38 366.66 1405.05 367.17 1411.69 366.62 C 1413.44 362.53 1413.66 357.98 1414.94 353.74 C 1417.95 341.96 1420.84 330.12 1422.21 318.02 C 1422.48 314.68 1422.42 310.63 1419.57 308.35 C 1416.20 305.41 1411.51 305.53 1407.35 304.94 C 1407.22 304.43 1406.97 303.39 1406.85 302.87 C 1406.99 302.15 1407.28 300.70 1407.42 299.97 Z" />
<path fill="#313132" opacity="1.00" d=" M 1875.86 344.07 C 1877.79 330.88 1879.02 317.57 1881.40 304.45 C 1881.35 351.30 1881.50 398.15 1881.57 445.00 C 1896.16 444.99 1910.76 445.02 1925.35 444.98 C 1924.84 446.66 1924.46 448.38 1924.20 450.12 C 1908.06 450.12 1891.91 450.13 1875.77 450.11 C 1875.53 422.93 1875.66 395.75 1875.66 368.57 C 1874.60 368.19 1873.63 367.71 1872.73 367.13 C 1873.47 367.00 1874.94 366.75 1875.68 366.63 C 1875.66 359.11 1875.46 351.58 1875.86 344.07 Z" />
<path fill="#313132" opacity="1.00" d=" M 1808.35 350.04 C 1808.15 335.87 1808.30 321.70 1808.43 307.53 C 1809.02 310.65 1809.53 313.78 1809.97 316.93 C 1816.05 359.61 1822.33 402.27 1828.34 444.96 C 1838.35 445.02 1848.36 445.01 1858.38 444.97 C 1857.90 446.64 1858.58 449.98 1856.05 450.04 C 1846.36 450.29 1836.67 450.00 1826.98 450.16 C 1825.35 449.90 1822.86 450.74 1822.15 448.74 C 1821.58 445.95 1821.84 443.07 1821.31 440.29 C 1818.63 429.35 1818.60 418.02 1816.53 406.97 C 1815.87 399.58 1813.52 392.46 1813.43 385.02 C 1812.03 379.70 1811.58 374.22 1810.63 368.83 C 1809.70 368.35 1808.93 367.72 1808.34 366.92 C 1808.60 361.30 1808.52 355.66 1808.35 350.04 Z" />
<path fill="#313132" opacity="1.00" d=" M 1239.20 309.66 C 1255.10 309.61 1271.00 309.62 1286.90 309.65 C 1286.04 311.13 1285.58 312.75 1285.46 314.44 C 1269.69 314.30 1253.92 314.46 1238.15 314.36 C 1238.49 312.79 1238.84 311.22 1239.20 309.66 Z" />
<path fill="#313132" opacity="1.00" d=" M 1678.16 366.89 C 1679.87 364.17 1682.78 363.58 1685.79 363.70 C 1685.69 377.50 1686.51 391.38 1684.86 405.12 C 1684.59 408.88 1682.47 412.57 1678.61 413.55 C 1678.74 407.68 1679.82 401.87 1679.81 396.00 C 1679.78 386.70 1679.79 377.40 1679.81 368.10 C 1675.18 368.05 1670.54 368.00 1665.92 368.05 C 1665.92 367.62 1665.92 366.77 1665.92 366.34 C 1669.98 366.62 1674.06 366.77 1678.16 366.89 Z" />
<path fill="#313132" opacity="1.00" d=" M 2078.22 366.85 C 2083.06 366.81 2087.90 366.84 2092.76 366.79 C 2090.99 372.04 2091.88 377.59 2091.87 383.01 C 2092.03 401.67 2092.03 420.33 2091.84 438.99 C 2091.78 443.48 2091.19 448.05 2092.44 452.44 L 2092.63 453.35 C 2091.58 453.30 2090.70 453.68 2090.01 454.49 C 2089.88 425.68 2090.00 396.86 2089.95 368.04 C 2086.03 368.07 2082.12 368.03 2078.22 368.01 L 2078.22 366.85 Z" />
<path fill="#313132" opacity="1.00" d=" M 1033.70 426.61 C 1035.74 424.50 1037.64 422.26 1039.61 420.08 C 1040.54 427.54 1040.55 435.18 1042.14 442.53 C 1058.17 442.77 1074.21 442.51 1090.25 442.65 C 1089.49 444.20 1088.83 445.80 1088.27 447.43 C 1070.78 447.31 1053.28 447.53 1035.80 447.31 C 1036.19 440.29 1033.35 433.63 1033.70 426.61 Z" />
<path fill="#313132" opacity="1.00" d=" M 813.40 426.59 C 815.37 424.48 817.26 422.29 819.19 420.13 C 820.02 427.61 820.73 435.11 821.44 442.60 C 837.40 442.64 853.36 442.60 869.32 442.63 C 869.23 444.16 869.14 445.70 869.05 447.24 C 851.03 447.50 832.99 447.53 814.97 447.22 C 814.85 440.32 814.59 433.40 813.40 426.59 Z" />
</g>
</svg>
